<?xml version="1.0" encoding="UTF-8"?>
<svg id="Layer_2" data-name="Layer 2" xmlns="http://www.w3.org/2000/svg" viewBox="0 0 561.35 37.96">
  <defs>
    <style>
      .cls-1 {
        fill: #fff;
      }
    </style>
  </defs>
  <g id="Layer_1-2" data-name="Layer 1">
    <g>
      <g>
        <path class="cls-1" d="M4.8,10.13c0-3.73,3.07-6.76,9.87-6.76,3.33,0,7.07.98,10.27,3.07l1.33-3.16c-3.02-2.04-7.38-3.29-11.6-3.29C5.2,0,.93,4.76.93,10.22c0,13.82,22.98,7.51,22.98,17.78,0,3.65-3.07,6.58-10.05,6.58-4.89,0-9.65-1.91-12.31-4.53l-1.56,3.07c2.8,2.85,8.27,4.85,13.87,4.85,9.56,0,13.91-4.71,13.91-10.18,0-13.6-22.98-7.42-22.98-17.65Z"/>
        <path class="cls-1" d="M38.29.31v3.42h13.73v33.92h3.96V3.73h13.73V.31h-31.42Z"/>
        <path class="cls-1" d="M96.66.31h-3.91l-17.07,37.34h4.13l14.85-33.2,14.89,33.2h4.13L96.66.31Z"/>
        <path class="cls-1" d="M117.97.31v3.42h13.73v33.92h3.96V3.73h13.73V.31h-31.42Z"/>
        <path class="cls-1" d="M164.38,34.23v-13.87h23.04v-3.33h-23.04V3.73h23.04V.31h-27v37.34h27v-3.42h-23.04Z"/>
      </g>
      <g>
        <path class="cls-1" d="M468.81.31h-3.91l-17.07,37.34h4.13l14.85-33.2,14.89,33.2h4.13L468.81.31Z"/>
        <path class="cls-1" d="M538.31,34.23v-13.87h23.04v-3.33h-23.04V3.73h23.04V.31h-27v37.34h27v-3.42h-23.04Z"/>
        <path class="cls-1" d="M378.1,10.13c0-3.73,3.07-6.76,9.87-6.76,3.33,0,7.07.98,10.27,3.07l1.33-3.16c-3.02-2.04-7.38-3.29-11.6-3.29-9.47,0-13.74,4.76-13.74,10.22,0,13.82,22.98,7.51,22.98,17.78,0,3.65-3.07,6.58-10.05,6.58-4.89,0-9.65-1.91-12.31-4.53l-1.56,3.07c2.8,2.85,8.27,4.85,13.87,4.85,9.56,0,13.91-4.71,13.91-10.18,0-13.6-22.98-7.42-22.98-17.65Z"/>
        <path class="cls-1" d="M428.58.31h-13.96v37.34h3.96v-11.78h10c9.51,0,15.25-4.8,15.25-12.76s-5.73-12.8-15.25-12.8ZM428.49,22.4h-9.91V3.73h9.91c7.47,0,11.38,3.42,11.38,9.38s-3.91,9.29-11.38,9.29Z"/>
        <path class="cls-1" d="M510.97,34.45c-9.02,0-15.78-6.62-15.78-15.47s6.76-15.47,15.78-15.47c4.27,0,8,1.33,11.02,4.45l2.53-2.53c-3.33-3.6-8.22-5.42-13.65-5.42-11.25,0-19.6,8.05-19.6,18.98s8.36,18.98,19.51,18.98c5.51,0,10.4-1.87,13.74-5.51l-2.53-2.49c-3.02,3.16-6.76,4.49-11.02,4.49Z"/>
      </g>
    </g>
  </g>
</svg>