<?xml version="1.0" encoding="UTF-8"?>
<svg id="Layer_2" data-name="Layer 2" xmlns="http://www.w3.org/2000/svg" xmlns:xlink="http://www.w3.org/1999/xlink" viewBox="0 0 972 256.98">
  <defs>
    <style>
      .cls-1 {
        fill: url(#linear-gradient);
      }

      .cls-1, .cls-2 {
        stroke-width: 0px;
      }

      .cls-2 {
        fill: #fff;
      }
    </style>
    <linearGradient id="linear-gradient" x1="357.56" y1="128.49" x2="614.44" y2="128.49" gradientUnits="userSpaceOnUse">
      <stop offset="0" stop-color="#1cf4ee"/>
      <stop offset=".49" stop-color="#704dfb"/>
      <stop offset="1" stop-color="#ec008c"/>
    </linearGradient>
  </defs>
  <g id="Layer_1-2" data-name="Layer 1">
    <path class="cls-1" d="m478.38,256.98c-.12,0-.25,0-.37-.01-3.54-.2-6.26-3.24-6.06-6.79.19-3.41,3.01-6.07,6.42-6.07.12,0,.25,0,.37.01,3.54.2,6.26,3.24,6.06,6.79-.19,3.41-3.01,6.07-6.42,6.07h0Zm50.5-7.79c-.12,0-.24,0-.36-.01-2.54-.14-4.76-1.77-5.66-4.14-.61-1.6-.56-3.35.15-4.92.71-1.57,1.98-2.77,3.58-3.38.74-.28,1.5-.42,2.28-.42.12,0,.24,0,.36.01,2.54.14,4.76,1.77,5.66,4.14,1.26,3.32-.42,7.04-3.73,8.3-.74.28-1.5.42-2.28.42Zm-99.8-5.62c-.12,0-.24,0-.36-.01-.9-.05-1.76-.29-2.58-.7-3.15-1.62-4.4-5.51-2.78-8.67,1.11-2.15,3.3-3.49,5.73-3.49.12,0,.24,0,.36.01.9.05,1.77.29,2.58.7,1.53.78,2.66,2.12,3.18,3.76.53,1.64.38,3.38-.4,4.91-1.11,2.15-3.3,3.49-5.73,3.49Zm142.75-22.04c-.12,0-.24,0-.36-.01-1.59-.09-3.08-.76-4.2-1.89-1.21-1.22-1.87-2.84-1.87-4.56,0-1.72.68-3.33,1.9-4.54,1.2-1.19,2.85-1.87,4.54-1.87.12,0,.24,0,.36.01,1.59.09,3.08.76,4.2,1.89,1.21,1.22,1.87,2.84,1.87,4.56,0,1.72-.68,3.33-1.9,4.54-1.2,1.19-2.85,1.87-4.54,1.87Zm-182.33-10.27c-.12,0-.24,0-.36-.01-1.82-.1-3.52-.98-4.66-2.39-1.07-1.34-1.56-3.02-1.38-4.73.19-1.71,1.03-3.24,2.36-4.32,1.14-.91,2.57-1.42,4.03-1.42.12,0,.24,0,.36.01,1.82.1,3.52.98,4.66,2.4,1.08,1.34,1.57,3.02,1.38,4.73-.19,1.71-1.03,3.24-2.37,4.32-1.14.91-2.57,1.42-4.03,1.42Zm210.33-32.47c-.12,0-.24,0-.37-.01-.67-.04-1.33-.18-1.97-.43-1.6-.62-2.87-1.83-3.56-3.4-.69-1.57-.73-3.32-.11-4.92.97-2.5,3.32-4.11,5.99-4.11.12,0,.24,0,.37.01.67.04,1.33.18,1.97.43,1.6.62,2.87,1.83,3.56,3.4.69,1.57.73,3.32.11,4.92-.97,2.5-3.32,4.11-5.99,4.11h0Zm-233.36-13.14c-.12,0-.24,0-.36,0-2.79-.16-5.14-2.08-5.86-4.79-.44-1.66-.2-3.39.66-4.88.87-1.49,2.26-2.54,3.92-2.98.54-.14,1.1-.22,1.65-.22.12,0,.24,0,.36,0,2.79.16,5.14,2.08,5.86,4.79.44,1.66.2,3.39-.66,4.88-.87,1.49-2.26,2.54-3.92,2.98-.54.14-1.1.22-1.65.22h0Zm241.53-37.3c-.12,0-.24,0-.37-.01-3.29-.19-5.89-2.81-6.05-6.11-.08-1.71.51-3.36,1.66-4.63,1.16-1.27,2.74-2.02,4.45-2.1.11,0,.21,0,.32,0,.12,0,.25,0,.37.01,3.29.19,5.89,2.81,6.05,6.11.08,1.72-.51,3.36-1.66,4.64-1.16,1.27-2.74,2.02-4.45,2.1-.11,0-.21,0-.32,0Zm-243.98-13.74c-.12,0-.25,0-.37-.01-.23-.01-.46-.04-.68-.07-1.7-.28-3.18-1.19-4.19-2.59-1-1.39-1.41-3.1-1.13-4.79.51-3.13,3.17-5.41,6.33-5.41.12,0,.24,0,.37.01.23.01.46.04.68.07,1.69.27,3.18,1.19,4.19,2.59,1.01,1.4,1.41,3.1,1.13,4.79-.51,3.13-3.17,5.4-6.33,5.4h0Zm230.96-35.66c-.11,0-.23,0-.34,0h-.02c-2.29-.13-4.36-1.48-5.39-3.53-.77-1.53-.9-3.28-.36-4.91.54-1.63,1.68-2.96,3.21-3.73.9-.45,1.9-.69,2.9-.69.12,0,.24,0,.36,0,2.29.13,4.36,1.48,5.39,3.53.77,1.53.9,3.28.37,4.91-.54,1.63-1.68,2.96-3.21,3.73-.9.45-1.9.69-2.9.69Zm-212.5-11.96c-.12,0-.24,0-.36-.01-1.12-.06-2.21-.42-3.15-1.04-1.44-.94-2.42-2.39-2.77-4.07-.35-1.68-.03-3.4.92-4.84,1.19-1.82,3.21-2.91,5.39-2.91.12,0,.24,0,.36.01,1.12.06,2.21.42,3.15,1.04,1.44.94,2.42,2.39,2.77,4.07.35,1.68.03,3.4-.91,4.84-1.19,1.82-3.21,2.91-5.39,2.91h0Zm180.5-27.87c-.13,0-.25,0-.38-.01-1.36-.08-2.64-.57-3.7-1.44-1.33-1.09-2.16-2.63-2.33-4.34-.17-1.71.33-3.38,1.42-4.72,1.23-1.5,3.04-2.37,4.98-2.37.13,0,.25,0,.38.01,1.36.08,2.64.57,3.7,1.44,1.33,1.09,2.16,2.63,2.33,4.34.17,1.71-.33,3.38-1.42,4.72-1.23,1.5-3.04,2.37-4.98,2.37Zm-144.21-8.12c-.12,0-.24,0-.37-.01-2.05-.12-3.94-1.22-5.06-2.94-.93-1.45-1.24-3.17-.88-4.85.36-1.68,1.36-3.12,2.81-4.05,1.04-.67,2.24-1.03,3.47-1.03.12,0,.24,0,.37.01,2.05.12,3.94,1.22,5.06,2.94.93,1.44,1.24,3.17.88,4.85-.36,1.68-1.36,3.12-2.8,4.05-1.04.67-2.24,1.03-3.47,1.03Zm98.77-15.25c-.12,0-.24,0-.36-.01-.45-.03-.9-.1-1.34-.22-1.66-.45-3.04-1.52-3.9-3.01-.85-1.49-1.08-3.23-.62-4.89.76-2.8,3.31-4.75,6.2-4.75.12,0,.24,0,.36,0,.45.03.9.1,1.34.22,3.42.93,5.45,4.48,4.52,7.9-.76,2.8-3.31,4.75-6.2,4.75h0Zm-51.03-2.87c-.12,0-.24,0-.36-.01-3.01-.17-5.53-2.46-5.99-5.44-.54-3.51,1.87-6.8,5.38-7.34.33-.05.66-.08,1-.08.12,0,.24,0,.36,0,3.01.17,5.53,2.46,5.99,5.44.26,1.7-.15,3.4-1.17,4.78-1.02,1.39-2.51,2.29-4.21,2.56-.33.05-.66.08-1,.08Zm37.74,239.42c-.07,0-.13,0-.2,0-1.83-.1-3.36-1.48-3.65-3.29-.16-1.03.08-2.06.7-2.91.61-.85,1.52-1.4,2.55-1.56.21-.03.42-.05.63-.05.07,0,.13,0,.2,0,1.83.1,3.36,1.48,3.65,3.29.34,2.13-1.12,4.14-3.25,4.47-.21.03-.42.05-.63.05Zm-50.65-2.65c-.07,0-.13,0-.2,0-.27-.01-.55-.06-.82-.13-2.08-.56-3.32-2.71-2.76-4.79.46-1.71,2.01-2.9,3.77-2.9.07,0,.13,0,.2,0,.27.01.55.06.82.13,2.08.56,3.32,2.71,2.77,4.79-.46,1.71-2.01,2.9-3.77,2.9h0Zm98.03-15.54c-.07,0-.14,0-.2,0-1.27-.07-2.39-.71-3.08-1.78-.57-.88-.76-1.92-.55-2.94.22-1.02.82-1.9,1.69-2.47.8-.52,1.6-.63,2.12-.63.07,0,.14,0,.2,0,1.27.07,2.39.71,3.08,1.78.57.88.76,1.92.55,2.94-.22,1.02-.82,1.9-1.69,2.47-.8.52-1.6.63-2.12.63Zm-143.24-7.49c-.07,0-.14,0-.21,0-.57-.03-1.43-.2-2.25-.87-.81-.66-1.32-1.59-1.43-2.63-.11-1.04.19-2.06.85-2.87.75-.92,1.85-1.45,3.04-1.45.07,0,.14,0,.21,0,.57.03,1.43.2,2.25.87.81.66,1.32,1.59,1.43,2.63.11,1.04-.19,2.06-.85,2.87-.75.92-1.85,1.45-3.04,1.45h0Zm179.1-28.39c-.07,0-.14,0-.21,0-.69-.04-1.33-.25-1.91-.63-.88-.57-1.48-1.44-1.69-2.47-.22-1.02-.02-2.07.54-2.94.72-1.12,1.95-1.78,3.28-1.78.07,0,.14,0,.21,0,.69.04,1.33.25,1.91.63.88.57,1.48,1.44,1.69,2.47.22,1.02.02,2.07-.54,2.94-.72,1.12-1.95,1.78-3.28,1.78h0Zm-211.03-11.03c-.07,0-.14,0-.21,0-1.4-.07-2.66-.89-3.29-2.13-.47-.93-.56-1.99-.24-2.98.32-.99,1.01-1.8,1.94-2.28.56-.28,1.15-.43,1.76-.43.07,0,.14,0,.21,0,1.4.07,2.66.89,3.29,2.13.47.93.56,1.99.24,2.98-.32.99-1.01,1.8-1.94,2.28-.56.28-1.15.43-1.76.43h0Zm229.21-36.34c-.07,0-.14,0-.21,0-.14,0-.28-.02-.42-.04-1.03-.16-1.94-.72-2.55-1.56-.61-.85-.86-1.88-.7-2.91.3-1.91,1.92-3.3,3.85-3.3.07,0,.14,0,.21,0,.14,0,.28.02.42.04,1.03.16,1.94.72,2.55,1.56.61.84.86,1.88.7,2.91-.3,1.91-1.92,3.3-3.85,3.3,0,0,0,0,0,0Zm-242.37-12.66c-.07,0-.14,0-.21,0-2-.1-3.58-1.69-3.69-3.7-.05-1.04.3-2.04,1-2.82.7-.78,1.66-1.23,2.7-1.29.07,0,.15,0,.22,0,.07,0,.14,0,.2,0,2,.1,3.58,1.69,3.69,3.7.05,1.04-.3,2.04-1,2.82-.7.78-1.66,1.23-2.7,1.29-.07,0-.14,0-.21,0Zm239.69-38c-.07,0-.13,0-.2,0-1.69-.09-3.13-1.25-3.57-2.89-.27-1.01-.13-2.06.39-2.97.52-.91,1.36-1.55,2.37-1.82.34-.09.68-.14,1.02-.14.07,0,.13,0,.2,0,1.69.09,3.13,1.25,3.57,2.89.27,1.01.13,2.06-.39,2.97-.52.9-1.36,1.55-2.37,1.82-.34.09-.68.14-1.02.14Zm-231.75-12.11c-.07,0-.14,0-.21,0-.41-.02-.81-.11-1.2-.26-.97-.37-1.74-1.1-2.17-2.06-.43-.95-.45-2.02-.08-2.99.59-1.53,2.02-2.51,3.65-2.51.07,0,.14,0,.21,0,.41.02.81.11,1.2.26.97.37,1.74,1.1,2.17,2.06.43.95.45,2.02.08,2.99-.59,1.53-2.02,2.51-3.64,2.51h0Zm208.72-33.09c-.07,0-.14,0-.21,0-.65-.03-1.88-.27-2.84-1.44-.66-.81-.96-1.83-.85-2.87s.62-1.97,1.43-2.63c.89-.72,1.82-.87,2.45-.87.07,0,.14,0,.21,0,.65.03,1.88.27,2.84,1.44,1.36,1.67,1.1,4.14-.58,5.5-.89.72-1.82.87-2.45.87Zm-181.11-9.46c-.07,0-.14,0-.2,0-.68-.04-1.68-.26-2.56-1.14-.74-.74-1.14-1.72-1.14-2.76,0-1.05.41-2.03,1.14-2.76,1-1,2.16-1.14,2.77-1.14.07,0,.14,0,.2,0,.68.04,1.68.26,2.56,1.14.74.74,1.15,1.72,1.15,2.76,0,1.04-.41,2.03-1.14,2.76-1,1-2.16,1.15-2.77,1.15Zm141.66-22.46c-.07,0-.14,0-.2,0-.54-.03-1.07-.17-1.56-.42-1.92-.98-2.69-3.34-1.71-5.26.67-1.32,2.01-2.14,3.49-2.14.07,0,.14,0,.2,0,.54.03,1.07.17,1.56.42,1.92.98,2.69,3.34,1.71,5.26-.67,1.32-2.01,2.14-3.49,2.14h0Zm-99.11-5.18c-.07,0-.13,0-.2,0-1.54-.08-2.9-1.06-3.45-2.5-.77-2.01.24-4.28,2.25-5.05.45-.17.92-.26,1.4-.26.07,0,.13,0,.2,0,1.54.08,2.9,1.06,3.45,2.5.77,2.01-.24,4.28-2.25,5.05-.45.17-.92.26-1.4.26Zm50.11-7.95c-.07,0-.14,0-.21,0-2.15-.11-3.81-1.96-3.7-4.11.11-2.08,1.82-3.7,3.9-3.7.07,0,.14,0,.21,0,2.15.11,3.81,1.96,3.7,4.11-.11,2.08-1.82,3.7-3.9,3.7h0Zm13.48,217.39c-3.04,0-5.71-2.16-6.34-5.15-.74-3.5,1.5-6.96,5-7.7.45-.1.91-.14,1.36-.14,3.04,0,5.71,2.16,6.34,5.15.36,1.7.04,3.43-.91,4.89-.94,1.45-2.4,2.45-4.1,2.82-.45.1-.91.14-1.36.14Zm-39.58,0c-.45,0-.91-.05-1.36-.14-3.5-.74-5.75-4.2-5-7.7.63-2.98,3.3-5.15,6.34-5.15.45,0,.91.05,1.36.14,3.5.74,5.75,4.2,5,7.7-.63,2.98-3.3,5.15-6.34,5.15h0Zm75.77-16.11c-2.08,0-4.04-1-5.26-2.68-1.02-1.4-1.43-3.12-1.16-4.83.27-1.71,1.19-3.22,2.6-4.24,1.12-.81,2.43-1.24,3.81-1.24,2.08,0,4.04,1,5.26,2.68,1.02,1.4,1.43,3.12,1.16,4.83-.27,1.72-1.19,3.22-2.59,4.24-1.12.81-2.44,1.24-3.81,1.24h0Zm-111.96,0c-1.38,0-2.69-.43-3.81-1.24-1.4-1.02-2.33-2.52-2.6-4.24-.27-1.71.14-3.43,1.16-4.83,1.22-1.68,3.18-2.68,5.26-2.68,1.38,0,2.69.43,3.81,1.24,1.4,1.02,2.32,2.52,2.59,4.24.27,1.72-.14,3.43-1.16,4.83-1.22,1.68-3.18,2.68-5.26,2.68h0Zm138.44-29.43c-1.13,0-2.25-.3-3.24-.87-1.5-.87-2.58-2.27-3.03-3.94-.45-1.68-.22-3.43.65-4.93,1.16-2,3.31-3.25,5.63-3.25,1.13,0,2.25.3,3.24.87,1.5.87,2.58,2.27,3.03,3.94.45,1.68.22,3.43-.65,4.93-1.16,2-3.31,3.25-5.63,3.25h0Zm-164.92,0c-2.32,0-4.47-1.24-5.63-3.25-.87-1.5-1.1-3.25-.65-4.93.45-1.68,1.52-3.08,3.03-3.94.99-.57,2.11-.87,3.24-.87,2.32,0,4.47,1.24,5.63,3.25,1.79,3.1.72,7.08-2.38,8.87-.99.57-2.11.87-3.24.87Zm177.17-37.66c-.23,0-.46-.01-.69-.04-1.72-.18-3.27-1.02-4.37-2.37-1.09-1.35-1.59-3.04-1.41-4.76.35-3.32,3.12-5.82,6.45-5.82.23,0,.46.01.69.04,1.72.18,3.28,1.02,4.37,2.37,1.09,1.35,1.59,3.04,1.41,4.77-.35,3.32-3.12,5.82-6.45,5.82h0Zm-189.43,0c-3.33,0-6.1-2.5-6.45-5.82-.18-1.72.32-3.41,1.41-4.76,1.09-1.35,2.64-2.19,4.37-2.37.23-.02.46-.04.69-.04,3.33,0,6.1,2.5,6.45,5.82.37,3.56-2.22,6.76-5.78,7.14-.23.02-.46.04-.69.04Zm185.28-39.38c-2.82,0-5.3-1.8-6.17-4.49-.54-1.65-.4-3.41.39-4.95.79-1.55,2.13-2.69,3.78-3.23.65-.21,1.33-.32,2.01-.32,2.82,0,5.3,1.8,6.17,4.49,1.11,3.41-.76,7.08-4.17,8.18-.65.21-1.33.32-2.01.32h0Zm-181.13,0c-.68,0-1.36-.11-2.01-.32-1.65-.54-2.99-1.68-3.78-3.23-.79-1.55-.93-3.31-.39-4.96.87-2.69,3.35-4.49,6.17-4.49.68,0,1.35.11,2.01.32,1.65.54,2.99,1.68,3.78,3.23s.93,3.31.39,4.95c-.87,2.69-3.35,4.49-6.17,4.49h0Zm161.33-34.29c-1.84,0-3.6-.78-4.83-2.15-2.4-2.66-2.18-6.77.48-9.17,1.19-1.08,2.74-1.67,4.34-1.67,1.84,0,3.6.78,4.83,2.15,2.4,2.66,2.18,6.77-.48,9.17-1.19,1.08-2.74,1.67-4.34,1.67Zm-141.54,0c-1.61,0-3.15-.59-4.34-1.67-2.66-2.4-2.88-6.51-.48-9.17,1.23-1.37,2.99-2.15,4.83-2.15,1.61,0,3.15.59,4.34,1.67,2.66,2.4,2.88,6.51.48,9.17-1.23,1.37-2.99,2.15-4.83,2.15h0Zm109.5-23.27c-.91,0-1.8-.19-2.64-.56-1.58-.71-2.8-1.99-3.42-3.61-.62-1.62-.58-3.38.13-4.97,1.04-2.34,3.37-3.85,5.94-3.85.91,0,1.8.19,2.64.56,3.27,1.46,4.75,5.3,3.29,8.57-1.04,2.34-3.37,3.85-5.94,3.85Zm-77.45,0c-2.56,0-4.89-1.51-5.94-3.85-.71-1.58-.75-3.35-.13-4.97.62-1.62,1.84-2.9,3.42-3.61.84-.37,1.73-.56,2.64-.56,2.56,0,4.89,1.51,5.94,3.85.71,1.58.75,3.35.13,4.97-.62,1.62-1.84,2.9-3.42,3.61-.84.37-1.73.56-2.64.56h0Zm38.73-8.23c-3.58,0-6.49-2.91-6.49-6.49s2.91-6.49,6.49-6.49,6.49,2.91,6.49,6.49-2.91,6.49-6.49,6.49Zm0,188.2c-2.47,0-4.48-2.01-4.48-4.48s2.01-4.48,4.48-4.48,4.48,2.01,4.48,4.48-2.01,4.48-4.48,4.48Zm-38.62-8.21c-.63,0-1.24-.13-1.82-.39-1.09-.49-1.93-1.37-2.36-2.49-.43-1.12-.4-2.33.09-3.43.72-1.61,2.33-2.66,4.09-2.66.63,0,1.24.13,1.82.39,1.09.49,1.93,1.37,2.36,2.49.43,1.12.4,2.33-.09,3.43-.72,1.61-2.33,2.66-4.09,2.66Zm77.24,0c-1.77,0-3.38-1.04-4.1-2.66-.49-1.09-.52-2.31-.09-3.42.43-1.12,1.27-2,2.36-2.49.58-.26,1.19-.39,1.82-.39,1.77,0,3.38,1.04,4.09,2.66,1,2.26-.01,4.91-2.27,5.91-.58.26-1.19.39-1.82.39h0Zm31.93-23.2c-1.11,0-2.17-.41-2.99-1.15-.89-.8-1.41-1.9-1.47-3.09-.06-1.2.34-2.34,1.14-3.23.85-.94,2.06-1.48,3.33-1.48,1.11,0,2.17.41,2.99,1.15,1.83,1.65,1.98,4.49.33,6.32-.85.94-2.06,1.48-3.33,1.48Zm-141.09,0c-1.27,0-2.48-.54-3.33-1.48-1.65-1.83-1.5-4.67.33-6.32.82-.74,1.89-1.15,2.99-1.15,1.27,0,2.48.54,3.33,1.48.8.89,1.2,2.03,1.14,3.23-.06,1.2-.59,2.29-1.47,3.09-.82.74-1.89,1.15-2.99,1.15Zm-19.74-34.18c-1.94,0-3.66-1.24-4.26-3.1-.37-1.13-.27-2.35.27-3.41.54-1.07,1.47-1.86,2.6-2.23.45-.15.92-.22,1.39-.22,1.94,0,3.65,1.24,4.26,3.1.37,1.14.27,2.35-.27,3.42-.54,1.07-1.47,1.86-2.61,2.23-.45.15-.92.22-1.38.22h0Zm180.58,0c-.47,0-.93-.07-1.39-.22-1.14-.37-2.06-1.16-2.61-2.23-.54-1.07-.64-2.28-.27-3.42.6-1.85,2.31-3.1,4.26-3.1.47,0,.93.07,1.38.22,1.14.37,2.06,1.16,2.6,2.23.54,1.07.64,2.28.27,3.41-.6,1.85-2.31,3.1-4.26,3.1Zm4.11-39.26c-2.29,0-4.2-1.72-4.44-4.01-.26-2.46,1.53-4.66,3.98-4.92.16-.02.32-.03.48-.03,2.29,0,4.2,1.72,4.44,4.01.13,1.19-.22,2.36-.97,3.29s-1.82,1.51-3.01,1.63c-.16.02-.32.03-.48.03Zm-188.81,0c-.16,0-.32,0-.48-.03-1.19-.12-2.25-.71-3.01-1.64-.75-.93-1.1-2.1-.98-3.28.24-2.29,2.15-4.01,4.44-4.01.16,0,.32,0,.48.02,2.46.26,4.24,2.47,3.99,4.92-.24,2.29-2.15,4.01-4.44,4.01Zm176.63-37.54c-1.6,0-3.09-.86-3.89-2.24-.6-1.04-.76-2.24-.45-3.4.31-1.16,1.05-2.12,2.09-2.72.68-.39,1.45-.6,2.23-.6,1.6,0,3.09.86,3.88,2.24,1.23,2.14.5,4.88-1.64,6.12-.68.39-1.45.6-2.23.6Zm-164.45,0c-.78,0-1.55-.21-2.23-.6-2.14-1.23-2.87-3.98-1.64-6.12.8-1.38,2.29-2.24,3.88-2.24.78,0,1.55.21,2.23.6,2.14,1.23,2.87,3.98,1.64,6.12-.8,1.38-2.29,2.24-3.88,2.24Zm138.02-29.34c-.95,0-1.85-.3-2.62-.86-.97-.7-1.6-1.74-1.79-2.92-.19-1.18.1-2.36.8-3.33.84-1.16,2.2-1.85,3.63-1.85.95,0,1.85.3,2.62.86.97.7,1.6,1.74,1.79,2.92.19,1.18-.1,2.36-.8,3.33-.84,1.16-2.2,1.85-3.63,1.85Zm-111.59,0c-1.43,0-2.79-.69-3.63-1.85-.7-.97-.99-2.15-.8-3.33.19-1.18.82-2.22,1.79-2.92.77-.56,1.68-.86,2.63-.86,1.43,0,2.79.69,3.63,1.85.7.97.99,2.15.8,3.33-.19,1.18-.82,2.22-1.79,2.92-.77.56-1.68.86-2.62.86Zm75.54-16.06c-.31,0-.63-.03-.94-.1-2.42-.51-3.96-2.9-3.45-5.31.44-2.06,2.28-3.55,4.37-3.55.31,0,.63.03.94.1,1.17.25,2.17.94,2.82,1.94.65,1,.87,2.2.62,3.37-.44,2.06-2.28,3.55-4.37,3.55Zm-39.49,0c-2.1,0-3.93-1.49-4.37-3.55-.51-2.41,1.03-4.8,3.45-5.31.31-.07.63-.1.94-.1,2.1,0,3.93,1.49,4.37,3.55.25,1.17.03,2.36-.63,3.37-.65,1-1.65,1.69-2.82,1.94-.31.07-.63.1-.94.1Zm6.4,144.65c-.8,2.47-3.46,3.83-5.93,3.02-2.47-.8-3.83-3.46-3.02-5.93.8-2.47,3.46-3.83,5.93-3.02,2.47.8,3.83,3.46,3.02,5.93Zm-42.08-72.89c-2.54-.54-5.04,1.08-5.58,3.63-.54,2.54,1.08,5.04,3.63,5.58,2.54.54,5.04-1.08,5.58-3.63.54-2.54-1.08-5.04-3.63-5.58Zm42.08-39.7c-.8-2.47-3.46-3.83-5.93-3.02-2.47.8-3.83,3.46-3.02,5.93.8,2.47,3.46,3.83,5.93,3.02,2.47-.8,3.83-3.46,3.02-5.93Zm-21.74,10.29c-1.74-1.93-4.72-2.09-6.65-.35-1.93,1.74-2.09,4.72-.35,6.65,1.74,1.93,4.72,2.09,6.65.35,1.93-1.74,2.09-4.72.35-6.65Zm29.55,98.67c-2.59-.27-4.9,1.6-5.17,4.19-.27,2.59,1.6,4.9,4.19,5.17,2.59.27,4.9-1.6,5.17-4.19.27-2.59-1.6-4.9-4.19-5.17Zm-29.9-13.31c-1.93-1.74-4.91-1.58-6.65.35-1.74,1.93-1.58,4.91.35,6.65,1.93,1.74,4.91,1.58,6.65-.35,1.74-1.93,1.58-4.91-.35-6.65Zm4.25,14.66c2.25,1.3,5.13.53,6.43-1.72,1.3-2.25.53-5.13-1.72-6.43-2.25-1.3-5.13-.53-6.43,1.72-1.3,2.25-.53,5.13,1.72,6.43Zm88.57-61.4c2.54-.54,4.17-3.04,3.63-5.58-.54-2.54-3.04-4.17-5.58-3.63-2.54.54-4.17,3.04-3.63,5.58.54,2.54,3.04,4.17,5.58,3.63Zm-114.36-17.98c-1.06,2.38.01,5.16,2.39,6.22,2.38,1.06,5.16-.01,6.22-2.39,1.06-2.38-.01-5.16-2.39-6.22-2.38-1.06-5.16.01-6.22,2.39Zm7.56-4.72c2.1,1.53,5.05,1.06,6.58-1.04,1.53-2.1,1.06-5.05-1.04-6.58-2.1-1.53-5.05-1.06-6.58,1.04-1.53,2.1-1.06,5.05,1.04,6.58Zm-6.01,46.68c2.54-.54,4.17-3.04,3.63-5.58s-3.04-4.17-5.58-3.63-4.17,3.04-3.63,5.58c.54,2.54,3.04,4.17,5.58,3.63Zm54.08-74.44c-.27-2.59-2.59-4.46-5.17-4.19-2.59.27-4.46,2.59-4.19,5.17.27,2.59,2.59,4.46,5.17,4.19,2.59-.27,4.46-2.59,4.19-5.17Zm-42.54,95.54c2.1-1.53,2.57-4.47,1.04-6.58-1.53-2.1-4.47-2.57-6.58-1.04-2.1,1.53-2.57,4.47-1.04,6.58,1.53,2.1,4.47,2.57,6.58,1.04Zm-6.88-9.95c2.38-1.06,3.44-3.84,2.39-6.22-1.06-2.38-3.84-3.44-6.22-2.39-2.38,1.06-3.44,3.84-2.39,6.22,1.06,2.38,3.84,3.44,6.22,2.39Zm24.29-73.62c2.25-1.3,3.02-4.18,1.72-6.43-1.3-2.25-4.18-3.02-6.43-1.72-2.25,1.3-3.02,4.18-1.72,6.43,1.3,2.25,4.18,3.02,6.43,1.72Zm52.96,91.73c-2.25,1.3-3.02,4.18-1.72,6.43,1.3,2.25,4.18,3.02,6.43,1.72s3.02-4.18,1.72-6.43c-1.3-2.25-4.18-3.02-6.43-1.72Zm-79.44-45.86c0-2.6-2.11-4.71-4.71-4.71s-4.71,2.11-4.71,4.71,2.11,4.71,4.71,4.71,4.71-2.11,4.71-4.71Zm88.04,46c1.74,1.93,4.72,2.09,6.65.35,1.93-1.74,2.09-4.72.35-6.65-1.74-1.93-4.72-2.09-6.65-.35-1.93,1.74-2.09,4.72-.35,6.65Zm21.89-20.63c1.06-2.38-.01-5.16-2.39-6.22-2.38-1.06-5.16.01-6.22,2.39-1.06,2.38.01,5.16,2.39,6.22,2.38,1.06,5.16-.01,6.22-2.39Zm-6.52,11.29c1.53-2.1,1.06-5.05-1.04-6.58-2.1-1.53-5.05-1.06-6.58,1.04s-1.06,5.05,1.04,6.58c2.1,1.53,5.05,1.06,6.58-1.04Zm-19.27-90.68c-2.25-1.3-5.13-.53-6.43,1.72-1.3,2.25-.53,5.13,1.72,6.43,2.25,1.3,5.13.53,6.43-1.72,1.3-2.25.53-5.13-1.72-6.43Zm24.24,70.61c2.54.54,5.04-1.08,5.58-3.63.54-2.54-1.08-5.04-3.63-5.58s-5.04,1.08-5.58,3.63c-.54,2.54,1.08,5.04,3.63,5.58Zm-36.15-75.91c-2.47-.8-5.13.55-5.93,3.02-.8,2.47.55,5.13,3.02,5.93,2.47.8,5.13-.55,5.93-3.02.8-2.47-.55-5.13-3.02-5.93Zm38.39,54.61c-2.6,0-4.71,2.11-4.71,4.71s2.11,4.71,4.71,4.71,4.71-2.11,4.71-4.71-2.11-4.71-4.71-4.71Zm-22.23-34.65c1.93,1.74,4.91,1.58,6.65-.35,1.74-1.93,1.58-4.91-.35-6.65-1.93-1.74-4.91-1.58-6.65.35-1.74,1.93-1.58,4.91.35,6.65Zm8.45,1.65c-2.1,1.53-2.57,4.47-1.04,6.58,1.53,2.1,4.47,2.57,6.58,1.04,2.1-1.53,2.57-4.47,1.04-6.58-1.53-2.1-4.47-2.57-6.58-1.04Zm6.88,9.95c-2.38,1.06-3.44,3.84-2.39,6.22,1.06,2.38,3.84,3.44,6.22,2.39,2.38-1.06,3.44-3.84,2.39-6.22-1.06-2.38-3.84-3.44-6.22-2.39Zm-44.25-34.28c-2.59-.27-4.9,1.6-5.17,4.19-.27,2.59,1.6,4.9,4.19,5.17,2.59.27,4.9-1.6,5.17-4.19.27-2.59-1.6-4.9-4.19-5.17Zm9.85,112.4c-2.47.8-3.83,3.46-3.02,5.93.8,2.47,3.46,3.83,5.93,3.02,2.47-.8,3.83-3.46,3.02-5.93-.8-2.47-3.46-3.83-5.93-3.02Zm-10.83,2.3c-2.59.27-4.46,2.59-4.19,5.17.27,2.59,2.59,4.46,5.17,4.19,2.59-.27,4.46-2.59,4.19-5.17-.27-2.59-2.59-4.46-5.17-4.19Zm-49.23-128.36c-3.16,1.82-4.24,5.86-2.41,9.01,1.82,3.16,5.86,4.24,9.01,2.41s4.24-5.86,2.41-9.01c-1.82-3.16-5.86-4.24-9.01-2.41Zm-5.95,20.54c2.71-2.44,2.93-6.61.49-9.32-2.44-2.71-6.61-2.93-9.32-.49-2.71,2.44-2.93,6.61-.49,9.32,2.44,2.71,6.61,2.93,9.32.49Zm-19.59,12.99c2.95,2.14,7.07,1.49,9.21-1.46,2.14-2.95,1.49-7.07-1.46-9.21-2.95-2.14-7.07-1.49-9.21,1.46-2.14,2.95-1.49,7.07,1.46,9.21Zm-7.25,15.32c3.33,1.48,7.23-.01,8.71-3.34,1.48-3.33-.02-7.23-3.34-8.71-3.33-1.48-7.23.01-8.71,3.34-1.48,3.33.01,7.23,3.34,8.71Zm-3.91,16.49c3.56.76,7.07-1.52,7.82-5.08.76-3.56-1.52-7.07-5.08-7.82-3.56-.76-7.07,1.52-7.82,5.08-.76,3.56,1.52,7.07,5.08,7.82Zm-.39,16.94c3.64,0,6.6-2.95,6.6-6.6s-2.95-6.6-6.6-6.6-6.6,2.95-6.6,6.6,2.95,6.6,6.6,6.6Zm3.14,16.66c3.56-.76,5.84-4.26,5.08-7.82-.76-3.56-4.26-5.84-7.82-5.08-3.56.76-5.84,4.26-5.08,7.82.76,3.56,4.26,5.84,7.82,5.08Zm9.87,6.93c-1.48-3.33-5.38-4.83-8.71-3.34-3.33,1.48-4.83,5.38-3.34,8.71,1.48,3.33,5.38,4.83,8.71,3.34,3.33-1.48,4.83-5.38,3.34-8.71Zm7.76,13.43c-2.14-2.95-6.27-3.6-9.21-1.46-2.95,2.14-3.6,6.27-1.46,9.21,2.14,2.95,6.27,3.6,9.21,1.46,2.95-2.14,3.6-6.27,1.46-9.21Zm10.38,11.53c-2.71-2.44-6.88-2.22-9.32.49-2.44,2.71-2.22,6.88.49,9.32,2.71,2.44,6.88,2.22,9.32-.49,2.44-2.71,2.22-6.88-.49-9.32Zm12.55,9.12c-3.16-1.82-7.19-.74-9.01,2.41-1.82,3.16-.74,7.19,2.41,9.01,3.16,1.82,7.19.74,9.01-2.41,1.82-3.16.74-7.19-2.41-9.01Zm14.17,6.31c-3.46-1.13-7.19.77-8.31,4.24-1.13,3.46.77,7.19,4.24,8.31,3.46,1.13,7.19-.77,8.31-4.24,1.13-3.47-.77-7.19-4.24-8.31Zm15.17,3.23c-3.62-.38-6.87,2.25-7.25,5.87-.38,3.62,2.25,6.87,5.87,7.25,3.62.38,6.87-2.25,7.25-5.87.38-3.62-2.25-6.87-5.87-7.25Zm15.51,0c-3.62.38-6.25,3.63-5.87,7.25.38,3.62,3.63,6.25,7.25,5.87,3.62-.38,6.25-3.63,5.87-7.25-.38-3.62-3.63-6.25-7.25-5.87Zm15.17-3.23c-3.47,1.13-5.36,4.85-4.24,8.31,1.13,3.46,4.85,5.36,8.31,4.24,3.46-1.13,5.36-4.85,4.24-8.31-1.13-3.46-4.85-5.36-8.31-4.24Zm14.17-6.31c-3.16,1.82-4.24,5.86-2.41,9.01,1.82,3.16,5.86,4.24,9.01,2.41,3.16-1.82,4.24-5.86,2.41-9.01-1.82-3.16-5.86-4.24-9.01-2.41Zm12.55-9.12c-2.71,2.44-2.93,6.61-.49,9.32,2.44,2.71,6.61,2.93,9.32.49,2.71-2.44,2.93-6.61.49-9.32-2.44-2.71-6.61-2.93-9.32-.49Zm19.59-12.99c-2.95-2.14-7.07-1.49-9.21,1.46-2.14,2.95-1.49,7.07,1.46,9.21,2.95,2.14,7.07,1.49,9.21-1.46,2.14-2.95,1.49-7.07-1.46-9.21Zm7.25-15.32c-3.33-1.48-7.23.01-8.71,3.34s.01,7.23,3.34,8.71c3.33,1.48,7.23-.01,8.71-3.34,1.48-3.33-.01-7.23-3.34-8.71Zm3.91-16.49c-3.56-.76-7.07,1.52-7.82,5.08-.76,3.56,1.52,7.07,5.08,7.82,3.56.76,7.07-1.52,7.82-5.08.76-3.56-1.52-7.07-5.08-7.82Zm.39-16.94c-3.64,0-6.6,2.95-6.6,6.6s2.95,6.6,6.6,6.6,6.6-2.95,6.6-6.6-2.95-6.6-6.6-6.6Zm-3.14-16.66c-3.56.76-5.84,4.26-5.08,7.82.76,3.56,4.26,5.84,7.82,5.08,3.56-.76,5.84-4.26,5.08-7.82-.76-3.56-4.26-5.84-7.82-5.08Zm-9.87-6.93c1.48,3.33,5.38,4.83,8.71,3.34,3.33-1.48,4.83-5.38,3.34-8.71-1.48-3.33-5.38-4.83-8.71-3.34-3.33,1.48-4.83,5.38-3.34,8.71Zm-7.76-13.43c2.14,2.95,6.27,3.6,9.21,1.46,2.95-2.14,3.6-6.27,1.46-9.21-2.14-2.95-6.27-3.6-9.21-1.46-2.95,2.14-3.6,6.27-1.46,9.21Zm-10.38-11.53c2.71,2.44,6.88,2.22,9.32-.49,2.44-2.71,2.22-6.88-.49-9.32-2.71-2.44-6.88-2.22-9.32.49-2.44,2.71-2.22,6.88.49,9.32Zm-12.55-9.12c3.16,1.82,7.19.74,9.01-2.41,1.82-3.16.74-7.19-2.41-9.01-3.16-1.82-7.19-.74-9.01,2.41-1.82,3.16-.74,7.19,2.41,9.01Zm-14.17-6.31c3.46,1.13,7.19-.77,8.31-4.24,1.13-3.46-.77-7.19-4.24-8.31-3.46-1.13-7.19.77-8.31,4.24-1.13,3.47.77,7.19,4.24,8.31Zm-15.17-3.23c3.62.38,6.87-2.25,7.25-5.87.38-3.62-2.25-6.87-5.87-7.25-3.62-.38-6.87,2.25-7.25,5.87-.38,3.62,2.25,6.87,5.87,7.25Zm-15.51,0c3.62-.38,6.25-3.63,5.87-7.25-.38-3.62-3.63-6.25-7.25-5.87-3.62.38-6.25,3.63-5.87,7.25.38,3.62,3.63,6.25,7.25,5.87Zm-15.17,3.23c3.46-1.13,5.36-4.85,4.24-8.31-1.13-3.46-4.85-5.36-8.31-4.24-3.47,1.13-5.36,4.85-4.24,8.31,1.13,3.46,4.85,5.36,8.31,4.24Zm-33.5,31.54c-2.67-1.54-6.09-.63-7.63,2.04-1.54,2.67-.63,6.09,2.04,7.63,2.67,1.54,6.09.63,7.63-2.04,1.54-2.67.63-6.09-2.04-7.63Zm-13.92,16.17c-.95,2.93.65,6.08,3.58,7.04,2.93.95,6.08-.65,7.04-3.58.95-2.93-.65-6.08-3.58-7.04-2.93-.95-6.08.65-7.04,3.58Zm-3.22,15.13c-.32,3.07,1.9,5.81,4.97,6.14,3.07.32,5.81-1.9,6.14-4.97.32-3.07-1.9-5.81-4.97-6.14-3.07-.32-5.81,1.9-6.14,4.97Zm0,15.46c.32,3.07,3.07,5.29,6.14,4.97,3.07-.32,5.29-3.07,4.97-6.14-.32-3.07-3.07-5.29-6.14-4.97-3.07.32-5.29,3.07-4.97,6.14Zm10.25,18.71c2.93-.95,4.54-4.1,3.58-7.04-.95-2.93-4.1-4.54-7.04-3.58-2.93.95-4.54,4.1-3.58,7.04.95,2.93,4.1,4.54,7.04,3.58Zm6.88,12.59c2.67-1.54,3.59-4.96,2.04-7.63-1.54-2.67-4.96-3.59-7.63-2.04-2.67,1.54-3.59,4.96-2.04,7.63s4.96,3.59,7.63,2.04Zm9.76,3c-2.06-2.29-5.59-2.48-7.89-.41-2.29,2.06-2.48,5.59-.41,7.88,2.06,2.29,5.59,2.48,7.89.41,2.29-2.06,2.48-5.59.41-7.88Zm3.19,17.82c2.49,1.81,5.99,1.26,7.8-1.24,1.81-2.49,1.26-5.99-1.24-7.8-2.49-1.81-5.99-1.26-7.8,1.24-1.81,2.49-1.26,5.99,1.24,7.8Zm20.76,4.9c1.25-2.82-.01-6.12-2.83-7.37-2.82-1.25-6.12.01-7.37,2.83-1.25,2.82.01,6.12,2.83,7.37,2.82,1.25,6.12-.01,7.37-2.83Zm13.96,3.31c.64-3.02-1.28-5.98-4.3-6.62-3.02-.64-5.98,1.28-6.62,4.3-.64,3.02,1.28,5.98,4.3,6.62,3.02.64,5.98-1.28,6.62-4.3Zm14.34.33c0-3.08-2.5-5.58-5.58-5.58s-5.58,2.5-5.58,5.58,2.5,5.58,5.58,5.58,5.58-2.5,5.58-5.58Zm14.1-2.66c-.64-3.02-3.61-4.94-6.62-4.3-3.02.64-4.94,3.61-4.3,6.62.64,3.02,3.61,4.94,6.62,4.3,3.02-.64,4.94-3.61,4.3-6.62Zm5.87-8.36c-2.82,1.25-4.08,4.55-2.83,7.37,1.25,2.82,4.55,4.08,7.37,2.83,2.82-1.25,4.08-4.55,2.83-7.37-1.25-2.82-4.55-4.08-7.37-2.83Zm17.93,2.47c2.49-1.81,3.05-5.3,1.24-7.8-1.81-2.49-5.3-3.05-7.8-1.24-2.49,1.81-3.05,5.3-1.24,7.8,1.81,2.49,5.3,3.05,7.8,1.24Zm11.49-10.35c2.06-2.29,1.88-5.82-.41-7.88-2.29-2.06-5.82-1.88-7.89.41-2.06,2.29-1.88,5.82.41,7.88,2.29,2.06,5.82,1.88,7.88-.41Zm1.46-10.47c2.67,1.54,6.09.63,7.63-2.04,1.54-2.67.63-6.09-2.04-7.63-2.67-1.54-6.09-.63-7.63,2.04-1.54,2.67-.63,6.08,2.04,7.63Zm13.92-16.17c.95-2.93-.65-6.08-3.58-7.04-2.93-.95-6.08.65-7.04,3.58-.95,2.93.65,6.08,3.58,7.04,2.93.95,6.08-.65,7.04-3.58Zm3.22-15.13c.32-3.07-1.9-5.81-4.97-6.14-3.07-.32-5.81,1.9-6.14,4.97-.32,3.07,1.9,5.81,4.97,6.14,3.07.32,5.81-1.9,6.14-4.97Zm0-15.46c-.32-3.07-3.07-5.29-6.14-4.97-3.07.32-5.29,3.07-4.97,6.14.32,3.07,3.07,5.29,6.14,4.97,3.07-.32,5.29-3.07,4.97-6.14Zm-6.8-8.09c2.93-.95,4.54-4.1,3.58-7.04s-4.1-4.54-7.04-3.58c-2.93.95-4.54,4.1-3.58,7.04.95,2.93,4.1,4.54,7.04,3.58Zm-10.33-23.21c-2.67,1.54-3.59,4.96-2.04,7.63,1.54,2.67,4.96,3.59,7.63,2.04,2.67-1.54,3.59-4.96,2.04-7.63-1.54-2.67-4.96-3.59-7.63-2.04Zm-9.76-3c2.06,2.29,5.59,2.48,7.89.41,2.29-2.06,2.48-5.59.41-7.88-2.06-2.29-5.59-2.48-7.88-.41-2.29,2.06-2.48,5.59-.41,7.88Zm-3.19-17.82c-2.49-1.81-5.99-1.26-7.8,1.24-1.81,2.49-1.26,5.99,1.24,7.8,2.49,1.81,5.99,1.26,7.8-1.24,1.81-2.49,1.26-5.99-1.24-7.8Zm-20.76-4.9c-1.25,2.82.01,6.12,2.83,7.37,2.82,1.25,6.12-.01,7.37-2.83,1.25-2.82-.01-6.12-2.83-7.37-2.82-1.25-6.12.01-7.37,2.83Zm-13.96-3.31c-.64,3.02,1.28,5.98,4.3,6.62,3.02.64,5.98-1.28,6.62-4.3.64-3.02-1.28-5.98-4.3-6.62-3.02-.64-5.98,1.28-6.62,4.3Zm-14.34-.33c0,3.08,2.5,5.58,5.58,5.58s5.58-2.5,5.58-5.58-2.5-5.58-5.58-5.58-5.58,2.5-5.58,5.58Zm-14.1,2.66c.64,3.02,3.61,4.94,6.62,4.3,3.02-.64,4.94-3.61,4.3-6.62-.64-3.02-3.61-4.94-6.62-4.3-3.02.64-4.94,3.61-4.3,6.62Zm-5.87,8.36c2.82-1.25,4.08-4.55,2.83-7.37-1.25-2.82-4.55-4.08-7.37-2.83-2.82,1.25-4.08,4.55-2.83,7.37,1.25,2.82,4.55,4.08,7.37,2.83Zm-17.93-2.47c-2.49,1.81-3.05,5.3-1.24,7.8,1.81,2.49,5.3,3.05,7.8,1.24,2.49-1.81,3.05-5.3,1.24-7.8-1.81-2.49-5.3-3.05-7.8-1.24Zm-3.61,9.93c-2.29-2.06-5.82-1.88-7.89.41-2.06,2.29-1.88,5.82.41,7.88,2.29,2.06,5.82,1.88,7.89-.41,2.06-2.29,1.88-5.82-.41-7.88Zm54.46,163.16c-2.77-.1-5.01-2.26-5.21-5.04-.1-1.44.37-2.84,1.31-3.93.95-1.09,2.27-1.75,3.71-1.85.19-.01.39-.02.58-.01,2.77.1,5.01,2.26,5.21,5.04.21,2.98-2.04,5.57-5.02,5.78-.19.01-.39.02-.58.01h0Zm-44.5-6.24c-.57-.02-1.13-.13-1.67-.33-1.36-.49-2.45-1.49-3.06-2.8-.61-1.31-.68-2.78-.18-4.14.81-2.21,2.93-3.65,5.28-3.57.57.02,1.13.13,1.67.33,2.81,1.02,4.26,4.14,3.24,6.94-.81,2.21-2.93,3.65-5.28,3.57h0Zm87.73-6.16c-1.93-.07-3.7-1.17-4.6-2.87-.68-1.28-.82-2.74-.4-4.13s1.36-2.52,2.64-3.2c.84-.45,1.78-.67,2.72-.63,1.93.07,3.7,1.17,4.6,2.87,1.4,2.64.4,5.92-2.24,7.33-.84.45-1.78.67-2.72.63h0Zm-125.86-17.65c-1.34-.05-2.61-.58-3.57-1.52-1.04-1-1.63-2.36-1.65-3.8-.03-1.45.51-2.82,1.52-3.86,1.06-1.1,2.55-1.71,4.09-1.65,1.34.05,2.61.58,3.57,1.52,1.04,1,1.63,2.36,1.65,3.8.03,1.45-.51,2.82-1.52,3.86-1.06,1.1-2.55,1.71-4.09,1.65h0Zm160.27-11.26c-1.15-.04-2.23-.44-3.14-1.14-1.14-.89-1.87-2.17-2.04-3.61-.18-1.44.22-2.86,1.11-4,1.06-1.36,2.73-2.14,4.47-2.08,1.15.04,2.23.44,3.14,1.14,2.35,1.84,2.77,5.25.94,7.6-1.06,1.36-2.73,2.14-4.46,2.08h0Zm-185.41-26c-2.14-.07-4.04-1.4-4.84-3.39-.54-1.34-.53-2.81.03-4.15.57-1.33,1.62-2.36,2.96-2.91.71-.29,1.46-.42,2.21-.39,2.14.07,4.04,1.4,4.84,3.39.54,1.34.53,2.81-.03,4.15-.57,1.33-1.62,2.36-2.96,2.91-.71.29-1.46.42-2.21.39h0Zm205.12-14.41c-.38-.01-.76-.07-1.13-.16-2.9-.72-4.67-3.67-3.95-6.57.61-2.47,2.9-4.2,5.44-4.11.38.01.76.07,1.13.16,2.9.72,4.67,3.67,3.95,6.57-.61,2.47-2.9,4.2-5.44,4.11Zm-212.94-29.86c-2.99-.1-5.33-2.62-5.23-5.6.1-2.99,2.62-5.33,5.6-5.23,2.99.1,5.33,2.62,5.23,5.6s-2.62,5.33-5.6,5.23Zm214.48-15.06c-2.54-.09-4.7-1.97-5.14-4.47-.52-2.94,1.45-5.76,4.39-6.28.38-.07.76-.09,1.14-.08,2.54.09,4.7,1.97,5.14,4.47.52,2.94-1.45,5.76-4.39,6.28-.38.07-.76.09-1.14.08h0Zm-203.62-28.55c-.76-.03-1.49-.21-2.18-.55-2.69-1.31-3.81-4.56-2.5-7.24.94-1.92,2.92-3.12,5.06-3.04.76.03,1.49.21,2.18.55,1.3.63,2.28,1.74,2.75,3.1.47,1.37.38,2.84-.25,4.14-.94,1.92-2.92,3.12-5.06,3.04h0Zm186.79-13.12c-1.73-.06-3.34-.95-4.31-2.38-.81-1.2-1.1-2.64-.83-4.06.28-1.42,1.09-2.65,2.29-3.46.96-.64,2.07-.96,3.21-.92,1.73.06,3.34.95,4.31,2.38,1.67,2.48,1.02,5.85-1.46,7.52-.95.64-2.06.96-3.21.92h0Zm-159.12-22.31c-1.53-.05-2.98-.76-3.97-1.93-1.92-2.29-1.62-5.71.67-7.63,1.03-.86,2.33-1.31,3.67-1.27,1.53.05,2.98.76,3.96,1.93,1.92,2.29,1.62,5.71-.67,7.63-1.03.86-2.33,1.31-3.67,1.27Zm126.76-8.9c-.94-.03-1.87-.32-2.67-.82-1.23-.77-2.08-1.96-2.41-3.38-.33-1.41-.08-2.86.68-4.09,1.02-1.64,2.86-2.61,4.79-2.55.94.03,1.87.32,2.67.82,2.53,1.58,3.31,4.93,1.73,7.47-1.02,1.64-2.86,2.61-4.79,2.55h0Zm-87.08-12.21c-2.35-.08-4.37-1.66-5.02-3.92-.4-1.39-.23-2.85.47-4.12.7-1.27,1.85-2.18,3.24-2.58.55-.16,1.12-.23,1.68-.21,2.35.08,4.37,1.66,5.02,3.92.82,2.87-.84,5.88-3.71,6.7-.55.16-1.12.23-1.68.21h0Zm44.85-3.15c-.19,0-.38-.02-.58-.05-1.43-.2-2.7-.95-3.57-2.11-.87-1.16-1.24-2.58-1.04-4.01.39-2.75,2.77-4.76,5.54-4.66.19,0,.38.02.58.05,1.43.2,2.7.95,3.57,2.1.87,1.16,1.24,2.58,1.04,4.01-.39,2.75-2.77,4.76-5.54,4.66h0Zm-25.53,211.89c-.1,0-.19,0-.29-.02-1.71-.17-2.97-1.7-2.8-3.42.16-1.6,1.48-2.81,3.08-2.81h.05c.1,0,.19,0,.29.02.83.08,1.58.48,2.11,1.13.53.65.77,1.46.69,2.29-.16,1.6-1.48,2.81-3.08,2.82h-.05Zm44.48-4.92c-1.33-.01-2.51-.88-2.93-2.14-.26-.79-.2-1.64.17-2.39.37-.75,1.02-1.3,1.81-1.56.32-.1.64-.16.97-.16h.05c1.33.01,2.51.88,2.93,2.14.26.79.2,1.64-.17,2.38-.37.75-1.02,1.3-1.81,1.56-.32.11-.64.16-.97.16h-.05Zm-87.15-8.68c-.52,0-1.05-.15-1.51-.41-1.5-.85-2.02-2.76-1.17-4.26.55-.97,1.59-1.57,2.71-1.58h.05c.52,0,1.05.15,1.51.41.72.41,1.25,1.08,1.47,1.89.22.8.11,1.65-.3,2.37-.55.97-1.59,1.57-2.7,1.58h-.05Zm125.8-13.91c-.87,0-1.7-.38-2.28-1.02-.56-.62-.85-1.42-.81-2.25.04-.83.4-1.6,1.02-2.16.57-.52,1.31-.81,2.08-.81h.05c.87,0,1.7.38,2.28,1.02,1.16,1.27,1.07,3.25-.21,4.41-.57.52-1.31.81-2.08.81h-.05Zm-159.22-15.86c-.98-.01-1.91-.49-2.49-1.27-1.02-1.39-.72-3.35.67-4.37.54-.39,1.17-.6,1.83-.61h.05c.98.01,1.91.49,2.49,1.27.49.67.69,1.49.57,2.32-.13.83-.57,1.55-1.24,2.05-.54.39-1.17.6-1.82.61h-.05Zm185.33-20.5c-.42,0-.83-.09-1.22-.27-.76-.33-1.35-.95-1.65-1.73-.3-.78-.29-1.63.05-2.39.5-1.13,1.61-1.86,2.85-1.87h.05c.42,0,.83.09,1.22.27.76.34,1.35.95,1.66,1.73.3.78.29,1.63-.05,2.39-.5,1.13-1.61,1.86-2.84,1.87h-.05Zm-203.78-20.3c-1.44-.01-2.71-1.05-3.01-2.46-.18-.82-.03-1.65.42-2.35.45-.7,1.15-1.19,1.96-1.36.22-.05.44-.07.66-.07h.05c1.44.02,2.7,1.05,3.01,2.46.37,1.68-.7,3.35-2.39,3.72-.22.05-.44.07-.65.07h-.05Zm212.85-23.54c-1.69-.02-3.08-1.41-3.09-3.11,0-1.72,1.38-3.13,3.11-3.14h.05c1.69.02,3.08,1.41,3.09,3.11,0,.83-.32,1.62-.9,2.21-.59.59-1.37.92-2.2.93h-.05Zm-213.07-21.23c-.2,0-.41-.02-.61-.07-.82-.17-1.52-.65-1.98-1.35-.46-.7-.62-1.53-.45-2.35.3-1.44,1.57-2.49,3.03-2.49h.05c.2,0,.41.02.61.07,1.69.35,2.77,2.01,2.43,3.69-.3,1.44-1.57,2.48-3.03,2.49h0s-.05,0-.05,0Zm203.53-22.51c-1.21-.01-2.32-.73-2.82-1.84-.34-.76-.37-1.61-.08-2.39.29-.78.88-1.4,1.64-1.74.4-.18.83-.28,1.26-.28h.05c1.21.01,2.32.73,2.82,1.84.34.76.37,1.61.07,2.39-.3.78-.88,1.4-1.63,1.74-.41.18-.83.28-1.26.28h-.05Zm-185.57-18.49c-.64,0-1.26-.21-1.78-.59-1.4-1-1.72-2.96-.71-4.36.58-.81,1.53-1.3,2.53-1.3h.05c.64,0,1.26.21,1.78.59.68.49,1.13,1.21,1.26,2.03.14.82-.06,1.65-.55,2.33-.58.81-1.53,1.3-2.53,1.3h-.05Zm159.05-17.59c-.75,0-1.48-.29-2.04-.79-.62-.55-.99-1.32-1.04-2.15-.05-.83.23-1.63.79-2.26.59-.66,1.43-1.04,2.32-1.05h.05c.75,0,1.48.29,2.04.79,1.29,1.15,1.4,3.12.26,4.41-.59.66-1.43,1.04-2.31,1.05h-.05Zm-125.93-12.54c-1.1-.01-2.12-.6-2.67-1.55-.87-1.49-.37-3.4,1.12-4.27.47-.28,1.01-.43,1.55-.43h.05c1.1.01,2.12.6,2.67,1.55.42.72.54,1.56.33,2.37-.21.81-.72,1.48-1.45,1.9-.47.28-1.01.43-1.55.43h-.05Zm87.04-9.63c-.31,0-.62-.05-.92-.15-.8-.25-1.44-.8-1.83-1.54-.38-.74-.45-1.59-.2-2.38.41-1.29,1.6-2.17,2.96-2.18h.05c.31,0,.62.05.92.15.8.25,1.44.8,1.83,1.54.38.74.45,1.59.2,2.38-.41,1.29-1.6,2.17-2.95,2.18h-.05Zm-44.56-4.44c-1.57-.02-2.89-1.21-3.06-2.78-.19-1.71,1.05-3.26,2.76-3.45.11-.01.23-.02.34-.02h.05c1.57.02,2.89,1.21,3.06,2.78.19,1.71-1.05,3.26-2.76,3.45-.11.01-.23.02-.34.02h-.05Z"/>
    <g>
      <g>
        <path class="cls-2" d="m8.31,113.17c0-6.46,5.31-11.7,17.09-11.7,5.77,0,12.24,1.69,17.78,5.31l2.31-5.46c-5.23-3.54-12.78-5.7-20.09-5.7-16.39,0-23.78,8.24-23.78,17.7,0,23.94,39.79,13.01,39.79,30.79,0,6.31-5.31,11.39-17.39,11.39-8.47,0-16.7-3.31-21.32-7.85l-2.69,5.31c4.85,4.93,14.32,8.39,24.01,8.39,16.55,0,24.09-8.16,24.09-17.63,0-23.55-39.79-12.85-39.79-30.56Z"/>
        <path class="cls-2" d="m66.3,96.16v5.93h23.78v58.73h6.85v-58.73h23.78v-5.93h-54.41Z"/>
        <path class="cls-2" d="m167.38,96.16h-6.77l-29.56,64.65h7.16l25.71-57.5,25.78,57.5h7.16l-29.48-64.65Z"/>
        <path class="cls-2" d="m204.28,96.16v5.93h23.78v58.73h6.85v-58.73h23.78v-5.93h-54.41Z"/>
        <path class="cls-2" d="m284.63,154.89v-24.01h39.9v-5.77h-39.9v-23.01h39.9v-5.93h-46.75v64.65h46.75v-5.93h-39.9Z"/>
      </g>
      <g>
        <path class="cls-2" d="m811.77,96.16h-6.77l-29.56,64.65h7.16l25.71-57.5,25.78,57.5h7.16l-29.48-64.65Z"/>
        <path class="cls-2" d="m932.1,154.89v-24.01h39.9v-5.77h-39.9v-23.01h39.9v-5.93h-46.75v64.65h46.75v-5.93h-39.9Z"/>
        <path class="cls-2" d="m654.7,113.17c0-6.46,5.31-11.7,17.09-11.7,5.77,0,12.24,1.69,17.78,5.31l2.31-5.46c-5.23-3.54-12.78-5.7-20.09-5.7-16.39,0-23.78,8.24-23.78,17.7,0,23.94,39.79,13.01,39.79,30.79,0,6.31-5.31,11.39-17.39,11.39-8.47,0-16.7-3.31-21.32-7.85l-2.69,5.31c4.85,4.93,14.32,8.39,24.01,8.39,16.55,0,24.09-8.16,24.09-17.63,0-23.55-39.79-12.85-39.79-30.56Z"/>
        <path class="cls-2" d="m742.1,96.16h-24.17v64.65h6.85v-20.4h17.32c16.47,0,26.4-8.31,26.4-22.09s-9.93-22.17-26.4-22.17Zm-.15,38.25h-17.16v-32.33h17.16c12.93,0,19.7,5.93,19.7,16.24s-6.77,16.09-19.7,16.09Z"/>
        <path class="cls-2" d="m884.76,155.27c-15.62,0-27.32-11.47-27.32-26.78s11.7-26.78,27.32-26.78c7.39,0,13.85,2.31,19.09,7.7l4.39-4.39c-5.77-6.23-14.24-9.39-23.63-9.39-19.47,0-33.94,13.93-33.94,32.87s14.47,32.87,33.79,32.87c9.54,0,18.01-3.23,23.78-9.54l-4.39-4.31c-5.23,5.46-11.7,7.77-19.09,7.77Z"/>
      </g>
    </g>
  </g>
</svg>